<?xml version="1.0" encoding="UTF-8" ?>
<svg xmlns="http://www.w3.org/2000/svg" viewBox="0 0 600 600">
<path d="M0,0H60L0,60Z" fill="#FEDD00"/>
<path d="M60,0H180L0,180V60Z" fill="#C8102E"/>
<path d="M180,0H300L0,300V180Z" fill="#FEDD00"/>
<path d="M300,0H420L0,420V300Z" fill="#C8102E"/>
<path d="M420,0H540L0,540V420Z" fill="#FEDD00"/>
<path d="M540,0H600V60L60,600H0V540Z" fill="#C8102E"/>
<path d="M600,60V180L180,600H60Z" fill="#FEDD00"/>
<path d="M600,180V300L300,600H180Z" fill="#C8102E"/>
<path d="M600,300V420L420,600H300Z" fill="#FEDD00"/>
<path d="M600,420V540L540,600H420Z" fill="#C8102E"/>
<path d="M600,540V600H540Z" fill="#FEDD00"/>
</svg>