<?xml version="1.0" encoding="UTF-8" ?>
<svg xmlns="http://www.w3.org/2000/svg" viewBox="0 0 120 90">
<path d="M0,0H12L0,9Z" fill="yellow"/>
<path d="M12,0H36L0,27V9Z" fill="red"/>
<path d="M36,0H60L0,45V27Z" fill="yellow"/>
<path d="M60,0H84L0,63V45Z" fill="red"/>
<path d="M84,0H108L0,81V63Z" fill="yellow"/>
<path d="M108,0H120V9L12,90H0V81Z" fill="red"/>
<path d="M120,9V27L36,90H12Z" fill="yellow"/>
<path d="M120,27V45L60,90H36Z" fill="red"/>
<path d="M120,45V63L84,90H60Z" fill="yellow"/>
<path d="M120,63V81L108,90H84Z" fill="red"/>
<path d="M120,81V90H108Z" fill="yellow"/>
</svg>