<?xml version="1.0" encoding="UTF-8" ?>
<svg xmlns="http://www.w3.org/2000/svg" viewBox="0 0 600 600">
<path d="M0,0H60L0,60Z" fill="yellow"/>
<path d="M60,0H180L0,180V60Z" fill="red"/>
<path d="M180,0H300L0,300V180Z" fill="yellow"/>
<path d="M300,0H420L0,420V300Z" fill="red"/>
<path d="M420,0H540L0,540V420Z" fill="yellow"/>
<path d="M540,0H600V60L60,600H0V540Z" fill="red"/>
<path d="M600,60V180L180,600H60Z" fill="yellow"/>
<path d="M600,180V300L300,600H180Z" fill="red"/>
<path d="M600,300V420L420,600H300Z" fill="yellow"/>
<path d="M600,420V540L540,600H420Z" fill="red"/>
<path d="M600,540V600H540Z" fill="yellow"/>
<path d="M0.5,0.5H599.5V599.5H0.5Z" stroke="#000" fill="none"/>
</svg>